Coordinates
version=1
nRows=19
nColumns=24
inDegrees=yes

Units are S.I. units (second, meters, Newtons, ...)
Angles are in degrees.

endheader
time	pelvis_tilt	pelvis_list	pelvis_rotation	pelvis_tx	pelvis_ty	pelvis_tz	hip_flexion_r	hip_adduction_r	hip_rotation_r	knee_angle_r	ankle_angle_r	subtalar_angle_r	mtp_angle_r	hip_flexion_l	hip_adduction_l	hip_rotation_l	knee_angle_l	ankle_angle_l	subtalar_angle_l	mtp_angle_l	lumbar_extension	lumbar_bending	lumbar_rotation
      0.46500000	     -3.42945921	     -0.13368911	     -2.63170730	     -0.86900674	      1.02622063	      0.28661040	     33.00799378	      1.61097215	     -4.52632651	    -20.59272822	      8.56746205	      1.98132976	     10.70466510	     -4.33335327	     -0.41783740	     -4.92532455	    -22.78566673	     29.20288924	     13.10139757	      4.61497195	    -10.63341769	     -1.88579336	     -0.26539038
      0.46916667	     -3.38184766	     -0.13166619	     -2.60354769	     -0.86254545	      1.02488013	      0.28688256	     33.02044897	      1.68014570	     -4.30152091	    -20.79612175	      8.53872934	      1.74244433	     10.69932001	     -4.51505974	     -0.48820524	     -5.18429509	    -23.38740858	     29.32927129	     13.48251790	      4.66781320	    -10.68756776	     -1.83070386	     -0.25597939
      0.47333333	     -3.33124012	     -0.15652082	     -2.56333411	     -0.85599999	      1.02359541	      0.28714012	     33.01314902	      1.76836639	     -4.11459582	    -21.06499433	      8.48982440	      1.48971434	     10.69328351	     -4.67761719	     -0.60216297	     -5.46602692	    -24.04855017	     29.42590380	     13.88060207	      4.76089328	    -10.71958472	     -1.74272990	     -0.23863090
      0.47750000	     -3.25969214	     -0.18849338	     -2.52369949	     -0.84943807	      1.02237185	      0.28739932	     32.97782270	      1.86652193	     -3.91017219	    -21.40580321	      8.44183099	      1.21197663	     10.68726208	     -4.84123910	     -0.72976517	     -5.73911181	    -24.76343419	     29.48947989	     14.29744286	      4.89830288	    -10.78454722	     -1.63539530	     -0.22288134
      0.48166667	     -3.16694145	     -0.19714757	     -2.48446257	     -0.84289695	      1.02120309	      0.28766059	     32.92929322	      1.94413965	     -3.68196623	    -21.84044352	      8.43706330	      0.92677737	     10.68294572	     -5.00530341	     -0.83283995	     -5.97783111	    -25.50993917	     29.51153146	     14.69684005	      5.04535912	    -10.88501210	     -1.54698604	     -0.21434243
      0.48583333	     -3.10416293	     -0.23821281	     -2.43346232	     -0.83627106	      1.02003803	      0.28792097	     32.89003602	      2.05189179	     -3.47540950	    -22.30891159	      8.37487769	      0.58505188	     10.67628629	     -5.09740831	     -0.99676679	     -6.26288118	    -26.35994717	     29.48832429	     15.15774856	      5.23517073	    -10.92349853	     -1.42125173	     -0.19996053
      0.49000000	     -3.00196065	     -0.29853568	     -2.39615642	     -0.82961875	      1.01897839	      0.28820296	     32.79637575	      2.18430393	     -3.26861230	    -22.81541116	      8.26326741	      0.25688991	     10.66686906	     -5.21687113	     -1.19315848	     -6.58848769	    -27.25070705	     29.40326669	     15.62945290	      5.54132177	    -11.00096320	     -1.27040203	     -0.17569669
      0.49416667	     -2.90140308	     -0.34229427	     -2.35641743	     -0.82296491	      1.01794604	      0.28848850	     32.71036654	      2.30206805	     -3.04683119	    -23.39343937	      8.19368837	     -0.11021962	     10.65633554	     -5.29946164	     -1.37665681	     -6.87074684	    -28.20634468	     29.26662922	     16.09267549	      5.92935794	    -11.08173832	     -1.13325009	     -0.15698686
      0.49833333	     -2.79390342	     -0.37753113	     -2.31455477	     -0.81632373	      1.01696879	      0.28878982	     32.61729038	      2.41439084	     -2.81017735	    -24.02215221	      8.12654684	     -0.49619018	     10.64297314	     -5.35734153	     -1.56377513	     -7.15340215	    -29.21912673	     29.06917095	     16.55379745	      6.34319501	    -11.16747894	     -1.01196630	     -0.14801476
      0.50250000	     -2.66033300	     -0.40583508	     -2.27071710	     -0.80967048	      1.01610574	      0.28906853	     32.49331848	      2.51521434	     -2.58870519	    -24.69302083	      8.09347433	     -0.85929683	     10.50212091	     -5.42506297	     -1.73628772	     -7.36027620	    -30.24757263	     28.64419280	     16.87156141	     10.91862250	    -11.29355477	     -0.87877494	     -0.07936860
      0.50666667	     -2.58250260	     -0.43997891	     -2.21641457	     -0.80299749	      1.01517938	      0.28935952	     32.42783564	      2.62053939	     -2.37580092	    -25.40077927	      8.04628144	     -1.25163115	     10.48979593	     -5.37924103	     -1.94196286	     -7.58982771	    -31.39815977	     28.32705419	     17.31503707	     11.02210851	    -11.33007848	     -0.73608874	     -0.11493161
      0.51083333	     -2.46529440	     -0.47712820	     -2.17791044	     -0.79635981	      1.01437070	      0.28968493	     32.31946855	      2.73861231	     -2.14424766	    -26.13492418	      8.00332946	     -1.66600095	     10.46779172	     -5.34815229	     -2.15975328	     -7.83543620	    -32.59804667	     27.91642479	     17.74818737	     11.21177113	    -11.42315196	     -0.58965136	     -0.09958021
      0.51500000	     -2.36388279	     -0.51324930	     -2.13348079	     -0.78973036	      1.01360471	      0.29002369	     32.22259759	      2.85568026	     -1.91388252	    -26.88511873	      7.98058654	     -2.08693301	     10.42780492	     -5.25926661	     -2.38784621	     -8.05259170	    -33.86580290	     27.41808260	     18.15868205	     11.54446722	    -11.49997728	     -0.43845548	     -0.08193138
      0.51916667	     -2.26610769	     -0.50911685	     -2.11576878	     -0.78314324	      1.01286279	      0.29041898	     32.14886000	      2.94741204	     -1.64702531	    -27.68940140	      8.00353769	     -2.46442670	     10.39299524	     -5.13953708	     -2.57549585	     -8.27188162	    -35.17254686	     26.83744483	     18.52221371	     11.80467782	    -11.56835851	     -0.37054006	     -0.09065430
      0.52333333	     -2.14745335	     -0.53447463	     -2.07613881	     -0.77655654	      1.01224876	      0.29075877	     32.03440546	      3.05290099	     -1.42636104	    -28.48364734	      8.06990797	     -2.83075371	      9.81574281	     -5.00428298	     -2.79777495	     -8.42869527	    -36.52480714	     26.07195857	     18.78597323	     15.95267770	    -11.67234847	     -0.22649883	     -0.04760440
      0.52750000	     -2.05598308	     -0.53909401	     -2.05765975	     -0.76999995	      1.01163374	      0.29116193	     31.95608839	      3.15178000	     -1.17898699	    -29.30092515	      8.16621998	     -3.18258642	      9.80279649	     -4.80656123	     -3.00917788	     -8.60573766	    -37.94104174	     25.32267130	     19.09192692	     16.00924019	    -11.73215633	     -0.12045121	     -0.06039775
      0.53166667	     -1.97578806	     -0.54936860	     -2.03416214	     -0.76347502	      1.01108029	      0.29156386	     31.87928756	      3.25484891	     -0.94065436	    -30.10721788	      8.28571058	     -3.53787353	      9.77573573	     -4.55555161	     -3.23095733	     -8.74332268	    -39.41393978	     24.49549062	     19.36038358	     16.12008043	    -11.78538949	      0.00008590	     -0.05289832
      0.53583333	     -1.89125092	     -0.55642789	     -2.01884317	     -0.75699927	      1.01059497	      0.29198090	     31.79194490	      3.35760144	     -0.70396707	    -30.90797250	      8.44686075	     -3.86736873	      9.73653410	     -4.27351313	     -3.45308757	     -8.86966612	    -40.93404114	     23.58913627	     19.57725337	     16.27125385	    -11.84722799	      0.11259670	     -0.04284378
      0.54000000	     -1.75183054	     -0.57218569	     -2.01333307	     -0.75057979	      1.01027962	      0.29242617	     31.62828374	      3.47684155	     -0.44918359	    -31.68073942	      8.66528484	     -4.22338206	      8.99603433	     -4.02783490	     -3.68613850	     -8.98990983	    -42.46286830	     22.56582199	     19.73231373	     18.97305353	    -11.99875935	      0.24115569	     -0.04119879
